<svg xmlns="http://www.w3.org/2000/svg" width="27" height="17" viewBox="0 0 27 17">
    <g fill="none" fill-rule="evenodd">
        <rect width="27" height="17" fill="#1FB9E3" rx="2"/>
        <path fill="#FFF" fill-rule="nonzero" stroke="#FFF" stroke-width=".3" d="M18.26 5.808h-1.622c.24-.239.36-.568.36-.927 0-.808-.72-1.437-1.531-1.377-.27.03-.51.12-.72.3h-.03c-.391.328-.601.837-.812 1.286-.12.3-.3.688-.42.688s-.3-.389-.42-.688c-.18-.449-.42-.958-.811-1.287a1.29 1.29 0 0 0-.721-.3h-.15c-.75 0-1.381.63-1.381 1.378 0 .359.15.688.36.927H8.74c-.12 0-.24.09-.24.24v1.796c0 .12.09.239.24.239h.781v5.178c0 .12.09.239.24.239h7.478c.12 0 .24-.09.24-.24V8.054h.78c.12 0 .241-.09.241-.24V6.019c-.03-.09-.12-.21-.24-.21zm-4.415 2.245v4.938h-.66V8.053h.66zm-.9-.449V6.257h1.17v1.347h-1.17zm1.41-2.304c.181-.39.361-.868.662-1.108.15-.12.3-.18.48-.21h.09c.51 0 .931.42.931.929 0 .508-.42.927-.93.927h-1.502l.27-.538zm-2.942-1.347h.09c.18.03.33.09.48.21.3.269.511.718.691 1.137.09.18.15.359.24.508h-1.501a.934.934 0 0 1-.931-.927c0-.51.42-.928.93-.928zM9.01 6.257h3.483v1.347H9.011V6.257zM10 8.053h2.553c.03.03.09.06.15.06h.03v4.908h-2.732V8.053zm7.028 4.938h-2.733V8.113h.03c.06 0 .12-.03.15-.06h2.553v4.938zm.99-5.387h-3.483V6.257h3.484v1.347z"/>
    </g>
</svg>
