<svg id="Layer_1" data-name="Layer 1" xmlns="http://www.w3.org/2000/svg" viewBox="0 0 136 25"><defs><style>.cls-1{fill:red;}</style></defs><path d="M12.17,7.44h-4V.64h-3V11.39H9.69V12H5.22V24.19H6.46v.64H0v-.64H1.24V.64H0V0H12.17ZM3.23,24.19V.64h-1V24.19Zm7-17.37V.64h-1V6.82Z"/><path d="M26.55,24.83H21.43v-.51a5.24,5.24,0,0,1-2.79.68c-2.76,0-4.13-1.08-4.13-3.26V17.66q0-3.44,5.73-3.43h1.19v-6A1.27,1.27,0,0,0,20,6.86a1.26,1.26,0,0,0-1.43,1.41V12H14.65V9.83A3.06,3.06,0,0,1,16.1,7.2a6.72,6.72,0,0,1,3.87-1,6.75,6.75,0,0,1,3.89,1,3.07,3.07,0,0,1,1.43,2.63V24.19h1.26Zm-9.15-.47a2.17,2.17,0,0,1-.95-1.87V17.05a2.5,2.5,0,0,1,.66-1.83,2.25,2.25,0,0,0-1.65,2.27v4.6A2.1,2.1,0,0,0,17.4,24.36ZM17.25,7.27a2.5,2.5,0,0,0-1.65,2.3v1.82h1V9.16A2.63,2.63,0,0,1,17.25,7.27Zm4.18,16.41V14.87H20.29c-1.26,0-1.9.47-1.9,1.4v6.67a1.19,1.19,0,0,0,1.34,1.35A2.88,2.88,0,0,0,21.43,23.68Zm1.94.51v-15a2.47,2.47,0,0,0-1.75-2.27,2.11,2.11,0,0,1,.76,1.77V24.19Z"/><path d="M39.17,21.38a3,3,0,0,1-1.43,2.56A6.74,6.74,0,0,1,33.8,25,6.8,6.8,0,0,1,29.87,24a3.05,3.05,0,0,1-1.53-2.57v-2.2h3.88v3.76c0,.95.53,1.42,1.58,1.42s1.51-.47,1.51-1.42V20.22A3.07,3.07,0,0,0,34,17.56l-4.08-2.88a3.6,3.6,0,0,1-1.53-3.15V9.83a3.08,3.08,0,0,1,1.48-2.58,6.65,6.65,0,0,1,3.89-1,6.64,6.64,0,0,1,3.88,1,3.08,3.08,0,0,1,1.48,2.58V12H35.21V8.27q0-1.41-1.5-1.41c-1,0-1.49.47-1.49,1.41v2.45a3.06,3.06,0,0,0,1.34,2.65l4.08,2.87a3.65,3.65,0,0,1,1.53,3.17ZM37.25,22V19.86a3.39,3.39,0,0,0-1.41-2.95l-4.27-3A3.25,3.25,0,0,1,30.28,11V9.16a2.47,2.47,0,0,1,.66-1.79,2.48,2.48,0,0,0-1.65,2.2v1.72a3.41,3.41,0,0,0,1.38,2.94l4.27,3.05a3.22,3.22,0,0,1,1.32,2.84v2.33a2.17,2.17,0,0,1-.81,1.77A2.52,2.52,0,0,0,37.25,22Zm-6.31,1.89a2.43,2.43,0,0,1-.66-1.78V19.82h-1v1.82A2.47,2.47,0,0,0,30.94,23.84Zm6.21-12.45V9.26A2.53,2.53,0,0,0,35.36,7a2.19,2.19,0,0,1,.8,1.77v2.63Z"/><path d="M54.58,24.83H49.45V8.27c0-.9-.47-1.35-1.43-1.35a3.1,3.1,0,0,0-1.8.61V24.19h1.27v.64H41.1v-.64h1.26V.64H41.1V0h5.12V6.89a5.47,5.47,0,0,1,2.89-.67q4.23,0,4.23,3.25V24.19h1.24Zm-10.3-.64V.64h-1V24.19Zm7.12,0V8.86a2,2,0,0,0-1.68-2,1.91,1.91,0,0,1,.68,1.66V24.19Z"/><path d="M62.36,24.83H56v-.64h1.24V7H56V6.39h5.12v17.8h1.24ZM61.12,4.26H57.24V0h3.88Zm-1.94-.64v-3h-1v3Zm0,20.57V7h-1V24.19Z"/><path d="M75.87,21.38A3,3,0,0,1,74.28,24a7.15,7.15,0,0,1-4,1.05,7.23,7.23,0,0,1-4-1.05,3,3,0,0,1-1.6-2.57V9.83a3,3,0,0,1,1.6-2.57,7.23,7.23,0,0,1,4-1,7.15,7.15,0,0,1,4,1,3,3,0,0,1,1.59,2.57Zm-8.64,2.46a2.43,2.43,0,0,1-.66-1.78V9.16a2.47,2.47,0,0,1,.66-1.79,2.48,2.48,0,0,0-1.65,2.2V21.64A2.47,2.47,0,0,0,67.23,23.84Zm4.76-.9V8.27c0-.94-.58-1.41-1.73-1.41s-1.74.47-1.74,1.41V22.94c0,.95.58,1.42,1.74,1.42S72,23.89,72,22.94Zm1.94-1V9.26c0-1-.6-1.72-1.8-2.27a2.09,2.09,0,0,1,.81,1.77V22.45a2.06,2.06,0,0,1-.81,1.77A2.52,2.52,0,0,0,73.93,22Z"/><path d="M91.57,24.83h-5.1V8.27c0-.9-.48-1.35-1.45-1.35a3.1,3.1,0,0,0-1.8.61V24.19h1.26v.64H78.1v-.64h1.26V7H78.1V6.39h5.12v.5a5.45,5.45,0,0,1,2.89-.67q4.23,0,4.23,3.25V24.19h1.23ZM81.3,24.19V7h-1V24.19Zm7.09,0V8.86a2,2,0,0,0-1.67-2,1.91,1.91,0,0,1,.68,1.66V24.19Z"/><path class="cls-1" d="M107.52,24.83H101v-.64h1.26V12h-4V24.19h1.24v.64H93.09v-.64h1.24V.64H93.09V0h6.46V.64H98.31V11.39h4V.64H101V0h6.49V.64h-1.27V24.19h1.27Zm-11.2-.64V.64h-1V24.19Zm8,0V.64h-1V24.19Z"/><path class="cls-1" d="M122.46,24.83h-5.12v-.51a5.42,5.42,0,0,1-2.87.68c-2.83,0-4.25-1.08-4.25-3.26V7H109V6.39h5.13V22.94c0,.9.48,1.35,1.46,1.35a3,3,0,0,0,1.77-.61V7H116.1V6.39h5.12v17.8h1.24Zm-9.35-.47a2.16,2.16,0,0,1-.94-1.87V7h-1V22.09A2.11,2.11,0,0,0,113.11,24.36Zm6.17-.17V7h-1V24.19Z"/><path class="cls-1" d="M136,21.74c0,2.18-1.41,3.26-4.23,3.26a5.47,5.47,0,0,1-2.89-.68v.51h-5.12v-.64H125V.64h-1.26V0h5.12V6.89a5.47,5.47,0,0,1,2.89-.67q4.23,0,4.23,3.25Zm-9.06,2.45V.64h-1V24.19Zm5.17-1.25V8.27c0-.9-.47-1.35-1.43-1.35a3.1,3.1,0,0,0-1.8.61V23.68a3,3,0,0,0,1.8.61C131.64,24.29,132.11,23.84,132.11,22.94Zm1.95-.59V8.86a2,2,0,0,0-1.68-2,1.91,1.91,0,0,1,.68,1.66V22.66a1.9,1.9,0,0,1-.68,1.66A2,2,0,0,0,134.06,22.35Z"/></svg>